<svg xmlns="http://www.w3.org/2000/svg" width="600" height="600" viewBox="0 0 600 600" version="1.1"><path d="M 271 14.131 C 247.276 16.544, 218.595 23.568, 195.782 32.552 C 95.348 72.102, 25.671 164.209, 15.079 271.424 C 13.694 285.442, 13.694 313.558, 15.079 327.576 C 23.385 411.647, 68.622 488.118, 138.500 536.211 C 177.323 562.930, 224.866 580.222, 272.424 584.921 C 286.442 586.306, 314.558 586.306, 328.576 584.921 C 376.134 580.222, 423.677 562.930, 462.500 536.211 C 532.378 488.118, 577.615 411.647, 585.921 327.576 C 587.306 313.558, 587.306 285.442, 585.921 271.424 C 581.222 223.866, 563.930 176.323, 537.211 137.500 C 489.118 67.622, 412.647 22.385, 328.576 14.079 C 315.980 12.835, 283.451 12.864, 271 14.131 M 291.500 125.943 C 288.750 127.552, 250.950 152.635, 207.500 181.684 C 150.562 219.750, 127.872 235.449, 126.250 237.898 L 124 241.296 124 299.500 L 124 357.704 126.250 361.102 C 127.872 363.551, 150.562 379.250, 207.500 417.316 C 250.950 446.365, 288.750 471.448, 291.500 473.057 C 298.087 476.910, 302.913 476.910, 309.500 473.057 C 312.250 471.448, 350.050 446.365, 393.500 417.316 C 450.438 379.250, 473.128 363.551, 474.750 361.102 L 477 357.704 477 299.500 L 477 241.296 474.750 237.898 C 473.128 235.449, 450.438 219.750, 393.500 181.684 C 350.050 152.635, 312.250 127.552, 309.500 125.943 C 306.231 124.031, 303.115 123.019, 300.500 123.019 C 297.885 123.019, 294.769 124.031, 291.500 125.943 M 225.249 205.503 C 192.662 227.229, 166 245.225, 166 245.493 C 166 246.679, 217.709 280.438, 219.500 280.422 C 220.600 280.412, 236.012 270.612, 253.750 258.645 L 286 236.887 286 201.443 C 286 181.950, 285.662 166, 285.249 166 C 284.835 166, 257.835 183.776, 225.249 205.503 M 315 201.343 L 315 236.899 347.250 258.642 C 364.988 270.601, 380.400 280.398, 381.500 280.413 C 383.287 280.437, 435 246.685, 435 245.495 C 435 244.916, 318.441 167.107, 316.404 166.325 C 315.215 165.868, 315 171.225, 315 201.343 M 273.734 280.784 C 259.059 290.528, 247.052 298.950, 247.051 299.500 C 247.049 300.503, 299.007 335.444, 300.500 335.444 C 301.992 335.444, 353.951 300.504, 353.951 299.500 C 353.951 298.728, 321.748 276.745, 303.093 264.784 L 300.416 263.067 273.734 280.784 M 153 299.500 C 153 321.445, 153.211 325.133, 154.437 324.663 C 156.455 323.888, 192 300.077, 192 299.500 C 192 298.923, 156.455 275.112, 154.437 274.337 C 153.211 273.867, 153 277.555, 153 299.500 M 427.746 286.508 C 417.436 293.387, 409 299.231, 409 299.495 C 409 300.076, 444.533 323.884, 446.563 324.663 C 447.789 325.133, 448 321.459, 448 299.607 C 448 285.523, 447.661 274, 447.246 274 C 446.831 274, 438.056 279.629, 427.746 286.508 M 192.250 335.475 C 177.813 345.120, 166 353.232, 166 353.501 C 166 354.082, 282.550 431.890, 284.596 432.675 C 285.785 433.132, 286 427.772, 286 397.639 L 286 362.064 253.750 340.415 C 236.012 328.508, 220.825 318.580, 220 318.353 C 219.175 318.125, 206.688 325.831, 192.250 335.475 M 347.750 340.047 L 315 362.065 315 397.640 C 315 427.772, 315.215 433.132, 316.404 432.675 C 318.441 431.893, 435 354.084, 435 353.505 C 435 352.739, 383.766 318.744, 382.043 318.367 C 381.194 318.181, 365.762 327.937, 347.750 340.047" stroke="none" fill="#fffcfc" fill-rule="evenodd"/><path d="" stroke="none" fill="#fcfcfc" fill-rule="evenodd"/></svg>