<svg xmlns="http://www.w3.org/2000/svg" xmlns:xlink="http://www.w3.org/1999/xlink" width="500" zoomAndPan="magnify" viewBox="0 0 375 374.999991" height="500" preserveAspectRatio="xMidYMid meet" version="1.0"><defs><filter x="0%" y="0%" width="100%" height="100%" id="3142e0ae3b"><feColorMatrix values="0 0 0 0 1 0 0 0 0 1 0 0 0 0 1 0 0 0 1 0" color-interpolation-filters="sRGB"/></filter><g/><mask id="1d86efdab0"><g filter="url(#3142e0ae3b)"><rect x="-37.5" width="450" fill="#000000" y="-37.499999" height="449.999989" fill-opacity="0.26"/></g></mask><clipPath id="976e4f96e6"><rect x="0" width="284" y="0" height="304"/></clipPath></defs><g mask="url(#1d86efdab0)"><g transform="matrix(1, 0, 0, 1, 53, 51)"><g clip-path="url(#976e4f96e6)"><g fill="#000000" fill-opacity="1"><g transform="translate(1.666821, 222.679225)"><g><path d="M 160.25 -154.40625 C 173.789062 -150.695312 187.519531 -143.1875 201.4375 -131.875 C 216.644531 -119.632812 233.054688 -110.734375 250.671875 -105.171875 C 264.210938 -100.898438 272.554688 -97.554688 275.703125 -95.140625 C 278.859375 -92.734375 280.4375 -89.488281 280.4375 -85.40625 C 280.4375 -83 279.09375 -81.332031 276.40625 -80.40625 C 273.71875 -79.476562 269.59375 -78.78125 264.03125 -78.3125 C 258.46875 -77.851562 253.832031 -77.625 250.125 -77.625 C 235.65625 -77.625 222.019531 -84.953125 209.21875 -99.609375 C 197.53125 -112.960938 187.375 -122.46875 178.75 -128.125 C 170.125 -133.78125 160.34375 -137.71875 149.40625 -139.9375 C 138.644531 -121.207031 129.414062 -104.46875 121.71875 -89.71875 C 114.019531 -74.976562 106 -67.609375 97.65625 -67.609375 C 95.425781 -67.609375 93.109375 -68.164062 90.703125 -69.28125 C 85.691406 -63.53125 82.628906 -56.851562 81.515625 -49.25 C 88.566406 -52.957031 93.296875 -54.8125 95.703125 -54.8125 C 98.117188 -54.8125 100.113281 -53.925781 101.6875 -52.15625 C 103.257812 -50.394531 104.046875 -48.585938 104.046875 -46.734375 C 104.046875 -44.878906 100.800781 -41.914062 94.3125 -37.84375 C 79.664062 -28.9375 65.109375 -16.785156 50.640625 -1.390625 C 46.367188 3.054688 42.890625 5.28125 40.203125 5.28125 C 37.515625 5.28125 34.6875 2.453125 31.71875 -3.203125 C 28.75 -8.859375 27.265625 -13.769531 27.265625 -17.9375 C 27.265625 -22.113281 29.304688 -24.945312 33.390625 -26.4375 C 35.796875 -27.363281 37.972656 -28.9375 39.921875 -31.15625 C 41.867188 -33.382812 45.066406 -38.300781 49.515625 -45.90625 C 40.617188 -50.726562 33.296875 -56.382812 27.546875 -62.875 C 25.691406 -62.6875 24.160156 -63.195312 22.953125 -64.40625 C 21.742188 -65.613281 21.140625 -67.191406 21.140625 -69.140625 C 21.140625 -71.085938 21.789062 -73.035156 23.09375 -74.984375 C 24.394531 -76.929688 28.472656 -80.820312 35.328125 -86.65625 C 42.191406 -92.5 47.988281 -96.71875 52.71875 -99.3125 C 57.445312 -101.914062 61.296875 -103.3125 64.265625 -103.5 C 64.640625 -109.4375 65.289062 -115.460938 66.21875 -121.578125 C 62.875 -120.648438 59.066406 -120.1875 54.796875 -120.1875 C 50.535156 -120.1875 45.296875 -122.085938 39.078125 -125.890625 C 32.867188 -129.691406 29.765625 -132.707031 29.765625 -134.9375 C 29.765625 -135.863281 30.085938 -136.460938 30.734375 -136.734375 C 31.390625 -137.015625 32.644531 -137.15625 34.5 -137.15625 C 39.695312 -137.15625 46.648438 -142.816406 55.359375 -154.140625 C 60.367188 -160.628906 66.070312 -163.875 72.46875 -163.875 C 78.875 -163.875 84.71875 -161.414062 90 -156.5 C 95.289062 -151.582031 97.9375 -146.851562 97.9375 -142.3125 C 97.9375 -137.769531 95.894531 -134.382812 91.8125 -132.15625 C 87.726562 -121.582031 85.128906 -110.269531 84.015625 -98.21875 C 89.953125 -93.757812 92.921875 -88.5625 92.921875 -82.625 C 92.921875 -80.40625 92.644531 -77.625 92.09375 -74.28125 C 97.28125 -79.476562 102.5625 -86.4375 107.9375 -95.15625 C 113.320312 -103.875 120.328125 -116.945312 128.953125 -134.375 C 137.578125 -151.8125 142.628906 -162.523438 144.109375 -166.515625 C 145.597656 -170.503906 146.34375 -173.796875 146.34375 -176.390625 C 146.34375 -180.097656 145.039062 -182.691406 142.4375 -184.171875 C 139.84375 -185.660156 138.546875 -186.867188 138.546875 -187.796875 C 138.546875 -188.722656 140.125 -189.414062 143.28125 -189.875 C 146.4375 -190.34375 149.125 -190.578125 151.34375 -190.578125 C 157.65625 -190.578125 162.523438 -188.953125 165.953125 -185.703125 C 169.390625 -182.460938 171.109375 -179.21875 171.109375 -175.96875 C 171.109375 -172.726562 170.457031 -170.363281 169.15625 -168.875 C 164.707031 -163.6875 161.738281 -158.863281 160.25 -154.40625 Z M 61.765625 -72.34375 C 51.566406 -68.8125 41.085938 -66.117188 30.328125 -64.265625 C 36.441406 -59.078125 44.320312 -56.296875 53.96875 -55.921875 C 57.3125 -61.484375 59.910156 -66.957031 61.765625 -72.34375 Z M 180.28125 -48.125 C 188.445312 -46.269531 193.828125 -42.375 196.421875 -36.4375 C 199.015625 -30.507812 200.3125 -26.289062 200.3125 -23.78125 C 200.3125 -21.28125 199.566406 -19.195312 198.078125 -17.53125 C 196.597656 -15.863281 189.785156 -9.742188 177.640625 0.828125 C 165.492188 11.398438 155.988281 19.144531 149.125 24.0625 C 142.257812 28.976562 136.554688 32.316406 132.015625 34.078125 C 127.472656 35.835938 123.066406 36.71875 118.796875 36.71875 C 110.640625 36.71875 106.5625 35.515625 106.5625 33.109375 C 106.5625 31.253906 108.414062 29.492188 112.125 27.828125 C 119.539062 24.671875 127.28125 19.425781 135.34375 12.09375 C 143.414062 4.769531 151.484375 -3.800781 159.546875 -13.625 C 167.617188 -23.457031 172.675781 -29.8125 174.71875 -32.6875 C 176.757812 -35.5625 177.78125 -38.019531 177.78125 -40.0625 C 177.78125 -42.101562 176.484375 -43.863281 173.890625 -45.34375 C 164.242188 -39.039062 154.875 -31.34375 145.78125 -22.25 C 143.738281 -20.21875 141.882812 -19.203125 140.21875 -19.203125 C 138.550781 -19.203125 137.113281 -20.820312 135.90625 -24.0625 C 134.695312 -27.3125 134.09375 -30.648438 134.09375 -34.078125 C 134.09375 -37.515625 137.25 -42.570312 143.5625 -49.25 C 151.539062 -57.78125 156.875 -63.664062 159.5625 -66.90625 C 162.25 -70.15625 163.59375 -72.242188 163.59375 -73.171875 C 163.59375 -74.097656 163.40625 -74.835938 163.03125 -75.390625 C 157.101562 -75.023438 148.109375 -70.019531 136.046875 -60.375 C 131.960938 -57.03125 129.039062 -55.359375 127.28125 -55.359375 C 125.519531 -55.359375 124.640625 -57.679688 124.640625 -62.328125 C 124.640625 -69.367188 125.101562 -74.46875 126.03125 -77.625 C 126.957031 -80.78125 128.8125 -83.191406 131.59375 -84.859375 C 136.050781 -87.453125 140.875 -91.945312 146.0625 -98.34375 C 151.257812 -104.75 153.859375 -108.832031 153.859375 -110.59375 C 153.859375 -112.351562 153.113281 -113.695312 151.625 -114.625 C 150.144531 -115.550781 149.40625 -116.476562 149.40625 -117.40625 C 149.40625 -118.332031 151.535156 -118.796875 155.796875 -118.796875 C 163.773438 -118.796875 170.359375 -116.800781 175.546875 -112.8125 C 180.742188 -108.832031 183.34375 -104.195312 183.34375 -98.90625 C 183.34375 -93.625 179.632812 -88.753906 172.21875 -84.296875 C 178.15625 -80.210938 182.421875 -75.390625 185.015625 -69.828125 C 187.609375 -64.265625 188.90625 -59.8125 188.90625 -56.46875 C 188.90625 -53.132812 186.03125 -50.351562 180.28125 -48.125 Z M 180.28125 -48.125 "/></g></g></g></g></g></g><g fill="#dd3838" fill-opacity="1"><g transform="translate(42.064069, 273.679221)"><g><path d="M 160.25 -154.40625 C 173.789062 -150.695312 187.519531 -143.1875 201.4375 -131.875 C 216.644531 -119.632812 233.054688 -110.734375 250.671875 -105.171875 C 264.210938 -100.898438 272.554688 -97.554688 275.703125 -95.140625 C 278.859375 -92.734375 280.4375 -89.488281 280.4375 -85.40625 C 280.4375 -83 279.09375 -81.332031 276.40625 -80.40625 C 273.71875 -79.476562 269.59375 -78.78125 264.03125 -78.3125 C 258.46875 -77.851562 253.832031 -77.625 250.125 -77.625 C 235.65625 -77.625 222.019531 -84.953125 209.21875 -99.609375 C 197.53125 -112.960938 187.375 -122.46875 178.75 -128.125 C 170.125 -133.78125 160.34375 -137.71875 149.40625 -139.9375 C 138.644531 -121.207031 129.414062 -104.46875 121.71875 -89.71875 C 114.019531 -74.976562 106 -67.609375 97.65625 -67.609375 C 95.425781 -67.609375 93.109375 -68.164062 90.703125 -69.28125 C 85.691406 -63.53125 82.628906 -56.851562 81.515625 -49.25 C 88.566406 -52.957031 93.296875 -54.8125 95.703125 -54.8125 C 98.117188 -54.8125 100.113281 -53.925781 101.6875 -52.15625 C 103.257812 -50.394531 104.046875 -48.585938 104.046875 -46.734375 C 104.046875 -44.878906 100.800781 -41.914062 94.3125 -37.84375 C 79.664062 -28.9375 65.109375 -16.785156 50.640625 -1.390625 C 46.367188 3.054688 42.890625 5.28125 40.203125 5.28125 C 37.515625 5.28125 34.6875 2.453125 31.71875 -3.203125 C 28.75 -8.859375 27.265625 -13.769531 27.265625 -17.9375 C 27.265625 -22.113281 29.304688 -24.945312 33.390625 -26.4375 C 35.796875 -27.363281 37.972656 -28.9375 39.921875 -31.15625 C 41.867188 -33.382812 45.066406 -38.300781 49.515625 -45.90625 C 40.617188 -50.726562 33.296875 -56.382812 27.546875 -62.875 C 25.691406 -62.6875 24.160156 -63.195312 22.953125 -64.40625 C 21.742188 -65.613281 21.140625 -67.191406 21.140625 -69.140625 C 21.140625 -71.085938 21.789062 -73.035156 23.09375 -74.984375 C 24.394531 -76.929688 28.472656 -80.820312 35.328125 -86.65625 C 42.191406 -92.5 47.988281 -96.71875 52.71875 -99.3125 C 57.445312 -101.914062 61.296875 -103.3125 64.265625 -103.5 C 64.640625 -109.4375 65.289062 -115.460938 66.21875 -121.578125 C 62.875 -120.648438 59.066406 -120.1875 54.796875 -120.1875 C 50.535156 -120.1875 45.296875 -122.085938 39.078125 -125.890625 C 32.867188 -129.691406 29.765625 -132.707031 29.765625 -134.9375 C 29.765625 -135.863281 30.085938 -136.460938 30.734375 -136.734375 C 31.390625 -137.015625 32.644531 -137.15625 34.5 -137.15625 C 39.695312 -137.15625 46.648438 -142.816406 55.359375 -154.140625 C 60.367188 -160.628906 66.070312 -163.875 72.46875 -163.875 C 78.875 -163.875 84.71875 -161.414062 90 -156.5 C 95.289062 -151.582031 97.9375 -146.851562 97.9375 -142.3125 C 97.9375 -137.769531 95.894531 -134.382812 91.8125 -132.15625 C 87.726562 -121.582031 85.128906 -110.269531 84.015625 -98.21875 C 89.953125 -93.757812 92.921875 -88.5625 92.921875 -82.625 C 92.921875 -80.40625 92.644531 -77.625 92.09375 -74.28125 C 97.28125 -79.476562 102.5625 -86.4375 107.9375 -95.15625 C 113.320312 -103.875 120.328125 -116.945312 128.953125 -134.375 C 137.578125 -151.8125 142.628906 -162.523438 144.109375 -166.515625 C 145.597656 -170.503906 146.34375 -173.796875 146.34375 -176.390625 C 146.34375 -180.097656 145.039062 -182.691406 142.4375 -184.171875 C 139.84375 -185.660156 138.546875 -186.867188 138.546875 -187.796875 C 138.546875 -188.722656 140.125 -189.414062 143.28125 -189.875 C 146.4375 -190.34375 149.125 -190.578125 151.34375 -190.578125 C 157.65625 -190.578125 162.523438 -188.953125 165.953125 -185.703125 C 169.390625 -182.460938 171.109375 -179.21875 171.109375 -175.96875 C 171.109375 -172.726562 170.457031 -170.363281 169.15625 -168.875 C 164.707031 -163.6875 161.738281 -158.863281 160.25 -154.40625 Z M 61.765625 -72.34375 C 51.566406 -68.8125 41.085938 -66.117188 30.328125 -64.265625 C 36.441406 -59.078125 44.320312 -56.296875 53.96875 -55.921875 C 57.3125 -61.484375 59.910156 -66.957031 61.765625 -72.34375 Z M 180.28125 -48.125 C 188.445312 -46.269531 193.828125 -42.375 196.421875 -36.4375 C 199.015625 -30.507812 200.3125 -26.289062 200.3125 -23.78125 C 200.3125 -21.28125 199.566406 -19.195312 198.078125 -17.53125 C 196.597656 -15.863281 189.785156 -9.742188 177.640625 0.828125 C 165.492188 11.398438 155.988281 19.144531 149.125 24.0625 C 142.257812 28.976562 136.554688 32.316406 132.015625 34.078125 C 127.472656 35.835938 123.066406 36.71875 118.796875 36.71875 C 110.640625 36.71875 106.5625 35.515625 106.5625 33.109375 C 106.5625 31.253906 108.414062 29.492188 112.125 27.828125 C 119.539062 24.671875 127.28125 19.425781 135.34375 12.09375 C 143.414062 4.769531 151.484375 -3.800781 159.546875 -13.625 C 167.617188 -23.457031 172.675781 -29.8125 174.71875 -32.6875 C 176.757812 -35.5625 177.78125 -38.019531 177.78125 -40.0625 C 177.78125 -42.101562 176.484375 -43.863281 173.890625 -45.34375 C 164.242188 -39.039062 154.875 -31.34375 145.78125 -22.25 C 143.738281 -20.21875 141.882812 -19.203125 140.21875 -19.203125 C 138.550781 -19.203125 137.113281 -20.820312 135.90625 -24.0625 C 134.695312 -27.3125 134.09375 -30.648438 134.09375 -34.078125 C 134.09375 -37.515625 137.25 -42.570312 143.5625 -49.25 C 151.539062 -57.78125 156.875 -63.664062 159.5625 -66.90625 C 162.25 -70.15625 163.59375 -72.242188 163.59375 -73.171875 C 163.59375 -74.097656 163.40625 -74.835938 163.03125 -75.390625 C 157.101562 -75.023438 148.109375 -70.019531 136.046875 -60.375 C 131.960938 -57.03125 129.039062 -55.359375 127.28125 -55.359375 C 125.519531 -55.359375 124.640625 -57.679688 124.640625 -62.328125 C 124.640625 -69.367188 125.101562 -74.46875 126.03125 -77.625 C 126.957031 -80.78125 128.8125 -83.191406 131.59375 -84.859375 C 136.050781 -87.453125 140.875 -91.945312 146.0625 -98.34375 C 151.257812 -104.75 153.859375 -108.832031 153.859375 -110.59375 C 153.859375 -112.351562 153.113281 -113.695312 151.625 -114.625 C 150.144531 -115.550781 149.40625 -116.476562 149.40625 -117.40625 C 149.40625 -118.332031 151.535156 -118.796875 155.796875 -118.796875 C 163.773438 -118.796875 170.359375 -116.800781 175.546875 -112.8125 C 180.742188 -108.832031 183.34375 -104.195312 183.34375 -98.90625 C 183.34375 -93.625 179.632812 -88.753906 172.21875 -84.296875 C 178.15625 -80.210938 182.421875 -75.390625 185.015625 -69.828125 C 187.609375 -64.265625 188.90625 -59.8125 188.90625 -56.46875 C 188.90625 -53.132812 186.03125 -50.351562 180.28125 -48.125 Z M 180.28125 -48.125 "/></g></g></g></svg>