<svg xmlns="http://www.w3.org/2000/svg" xml:space="preserve" width="2000" height="555" data-id="lg_Xpyy6n0ItYc6B89XCo" data-version="1" viewBox="0 0 2000 555"><g data-padding="20"><g transform="translate(10 14.194)scale(.94885)"><rect width="273.242" height="554.83" x="769.189" y="-18.477" fill="none" rx="0" ry="0" transform="rotate(-16 1103.858 -584.498)scale(.9)"/><path fill="#21272d" d="M1005.794 443.412q-12.976 3.648-22.54 4.467l-12.157-43.244q7.41-.213 16.054-2.643 14.267-4.01 19.184-13.09 4.916-9.079.784-23.779l-65.269-232.2 47.557-13.369 64.904 230.902q10.453 37.19-1.52 60.145-11.973 22.967-46.996 32.811m114.58-32.207q-12.967 3.645-22.532 4.464l-12.156-43.244q7.4-.21 16.054-2.642 14.267-4.01 19.184-13.09 4.907-9.076.775-23.777l-65.269-232.2 47.567-13.37 64.903 230.9q10.453 37.19-1.52 60.146-11.973 22.966-47.006 32.813"/><rect width="273.242" height="554.83" x="760.379" y="-33.564" fill="none" rx="0" ry="0" transform="matrix(.88 -.24 .24 .88 186.89 277.78)"/><path fill="#ea5141" d="M985.032 436.52q-13.02 3.49-22.595 4.19l-11.626-43.39q7.41-.122 16.085-2.446 14.315-3.835 19.342-12.854t1.075-23.768l-62.427-232.98 47.717-12.787 62.077 231.677q9.998 37.314-2.256 60.123-12.25 22.818-47.392 32.234m114.965-30.804q-13.02 3.488-22.595 4.19l-11.627-43.389q7.411-.122 16.085-2.446 14.315-3.836 19.342-12.855 5.018-9.015 1.066-23.765l-62.427-232.98 47.726-12.79 62.078 231.678q9.998 37.313-2.256 60.122-12.252 22.82-47.392 32.235"/></g><path fill="transparent" stroke="transparent" d="M804.5 0h391v555h-391z"/></g></svg>