<?xml version="1.0" encoding="UTF-8"?>
<svg xmlns="http://www.w3.org/2000/svg" xmlns:xlink="http://www.w3.org/1999/xlink" width="1140px" height="600px" viewBox="0 0 1140 600" version="1.1">
<g id="surface1">
<rect x="0" y="0" width="1140" height="600" style="fill:rgb(69.803923%,13.333334%,20.392157%);fill-opacity:1;stroke:none;"/>
<path style="fill-rule:nonzero;fill:rgb(0%,0%,0%);fill-opacity:1;stroke-width:300;stroke-linecap:butt;stroke-linejoin:miter;stroke:rgb(100%,100%,100%);stroke-opacity:1;stroke-miterlimit:4;" d="M 0 449.998047 L 7410 449.998047 M 7410 1050.003906 L 0 1050.003906 M 0 1650.009766 L 7410 1650.009766 M 7410 2249.990234 L 0 2249.990234 M 0 2849.996094 L 7410 2849.996094 M 7410 3450.001953 L 0 3450.001953 " transform="matrix(0.153846,0,0,0.153846,0,0)"/>
<path style=" stroke:none;fill-rule:nonzero;fill:rgb(23.529412%,23.137255%,43.137255%);fill-opacity:1;" d="M 0 0 L 456 0 L 456 323.078125 L 0 323.078125 Z M 0 0 "/>
<path style=" stroke:none;fill-rule:nonzero;fill:rgb(100%,100%,100%);fill-opacity:1;" d="M 38 13.847656 L 48.851562 47.242188 L 20.441406 26.601562 L 55.558594 26.601562 L 27.148438 47.242188 Z M 38 13.847656 "/>
<path style=" stroke:none;fill-rule:nonzero;fill:rgb(100%,100%,100%);fill-opacity:1;" d="M 38 78.460938 L 48.851562 111.859375 L 20.441406 91.21875 L 55.558594 91.21875 L 27.148438 111.859375 Z M 38 78.460938 "/>
<path style=" stroke:none;fill-rule:nonzero;fill:rgb(100%,100%,100%);fill-opacity:1;" d="M 38 143.078125 L 48.851562 176.472656 L 20.441406 155.832031 L 55.558594 155.832031 L 27.148438 176.472656 Z M 38 143.078125 "/>
<path style=" stroke:none;fill-rule:nonzero;fill:rgb(100%,100%,100%);fill-opacity:1;" d="M 38 207.691406 L 48.851562 241.089844 L 20.441406 220.449219 L 55.558594 220.449219 L 27.148438 241.089844 Z M 38 207.691406 "/>
<path style=" stroke:none;fill-rule:nonzero;fill:rgb(100%,100%,100%);fill-opacity:1;" d="M 38 272.308594 L 48.851562 305.703125 L 20.441406 285.0625 L 55.558594 285.0625 L 27.148438 305.703125 Z M 38 272.308594 "/>
<path style=" stroke:none;fill-rule:nonzero;fill:rgb(100%,100%,100%);fill-opacity:1;" d="M 76 46.152344 L 86.851562 79.550781 L 58.441406 58.910156 L 93.558594 58.910156 L 65.148438 79.550781 Z M 76 46.152344 "/>
<path style=" stroke:none;fill-rule:nonzero;fill:rgb(100%,100%,100%);fill-opacity:1;" d="M 76 110.769531 L 86.851562 144.167969 L 58.441406 123.527344 L 93.558594 123.527344 L 65.148438 144.167969 Z M 76 110.769531 "/>
<path style=" stroke:none;fill-rule:nonzero;fill:rgb(100%,100%,100%);fill-opacity:1;" d="M 76 175.382812 L 86.851562 208.78125 L 58.441406 188.140625 L 93.558594 188.140625 L 65.148438 208.78125 Z M 76 175.382812 "/>
<path style=" stroke:none;fill-rule:nonzero;fill:rgb(100%,100%,100%);fill-opacity:1;" d="M 76 240 L 86.851562 273.398438 L 58.441406 252.757812 L 93.558594 252.757812 L 65.148438 273.398438 Z M 76 240 "/>
<path style=" stroke:none;fill-rule:nonzero;fill:rgb(100%,100%,100%);fill-opacity:1;" d="M 114 13.847656 L 124.851562 47.242188 L 96.441406 26.601562 L 131.558594 26.601562 L 103.148438 47.242188 Z M 114 13.847656 "/>
<path style=" stroke:none;fill-rule:nonzero;fill:rgb(100%,100%,100%);fill-opacity:1;" d="M 114 78.460938 L 124.851562 111.859375 L 96.441406 91.21875 L 131.558594 91.21875 L 103.148438 111.859375 Z M 114 78.460938 "/>
<path style=" stroke:none;fill-rule:nonzero;fill:rgb(100%,100%,100%);fill-opacity:1;" d="M 114 143.078125 L 124.851562 176.472656 L 96.441406 155.832031 L 131.558594 155.832031 L 103.148438 176.472656 Z M 114 143.078125 "/>
<path style=" stroke:none;fill-rule:nonzero;fill:rgb(100%,100%,100%);fill-opacity:1;" d="M 114 207.691406 L 124.851562 241.089844 L 96.441406 220.449219 L 131.558594 220.449219 L 103.148438 241.089844 Z M 114 207.691406 "/>
<path style=" stroke:none;fill-rule:nonzero;fill:rgb(100%,100%,100%);fill-opacity:1;" d="M 114 272.308594 L 124.851562 305.703125 L 96.441406 285.0625 L 131.558594 285.0625 L 103.148438 305.703125 Z M 114 272.308594 "/>
<path style=" stroke:none;fill-rule:nonzero;fill:rgb(100%,100%,100%);fill-opacity:1;" d="M 152 46.152344 L 162.851562 79.550781 L 134.441406 58.910156 L 169.558594 58.910156 L 141.148438 79.550781 Z M 152 46.152344 "/>
<path style=" stroke:none;fill-rule:nonzero;fill:rgb(100%,100%,100%);fill-opacity:1;" d="M 152 110.769531 L 162.851562 144.167969 L 134.441406 123.527344 L 169.558594 123.527344 L 141.148438 144.167969 Z M 152 110.769531 "/>
<path style=" stroke:none;fill-rule:nonzero;fill:rgb(100%,100%,100%);fill-opacity:1;" d="M 152 175.382812 L 162.851562 208.78125 L 134.441406 188.140625 L 169.558594 188.140625 L 141.148438 208.78125 Z M 152 175.382812 "/>
<path style=" stroke:none;fill-rule:nonzero;fill:rgb(100%,100%,100%);fill-opacity:1;" d="M 152 240 L 162.851562 273.398438 L 134.441406 252.757812 L 169.558594 252.757812 L 141.148438 273.398438 Z M 152 240 "/>
<path style=" stroke:none;fill-rule:nonzero;fill:rgb(100%,100%,100%);fill-opacity:1;" d="M 190 13.847656 L 200.851562 47.242188 L 172.441406 26.601562 L 207.558594 26.601562 L 179.148438 47.242188 Z M 190 13.847656 "/>
<path style=" stroke:none;fill-rule:nonzero;fill:rgb(100%,100%,100%);fill-opacity:1;" d="M 190 78.460938 L 200.851562 111.859375 L 172.441406 91.21875 L 207.558594 91.21875 L 179.148438 111.859375 Z M 190 78.460938 "/>
<path style=" stroke:none;fill-rule:nonzero;fill:rgb(100%,100%,100%);fill-opacity:1;" d="M 190 143.078125 L 200.851562 176.472656 L 172.441406 155.832031 L 207.558594 155.832031 L 179.148438 176.472656 Z M 190 143.078125 "/>
<path style=" stroke:none;fill-rule:nonzero;fill:rgb(100%,100%,100%);fill-opacity:1;" d="M 190 207.691406 L 200.851562 241.089844 L 172.441406 220.449219 L 207.558594 220.449219 L 179.148438 241.089844 Z M 190 207.691406 "/>
<path style=" stroke:none;fill-rule:nonzero;fill:rgb(100%,100%,100%);fill-opacity:1;" d="M 190 272.308594 L 200.851562 305.703125 L 172.441406 285.0625 L 207.558594 285.0625 L 179.148438 305.703125 Z M 190 272.308594 "/>
<path style=" stroke:none;fill-rule:nonzero;fill:rgb(100%,100%,100%);fill-opacity:1;" d="M 228 46.152344 L 238.851562 79.550781 L 210.441406 58.910156 L 245.558594 58.910156 L 217.148438 79.550781 Z M 228 46.152344 "/>
<path style=" stroke:none;fill-rule:nonzero;fill:rgb(100%,100%,100%);fill-opacity:1;" d="M 228 110.769531 L 238.851562 144.167969 L 210.441406 123.527344 L 245.558594 123.527344 L 217.148438 144.167969 Z M 228 110.769531 "/>
<path style=" stroke:none;fill-rule:nonzero;fill:rgb(100%,100%,100%);fill-opacity:1;" d="M 228 175.382812 L 238.851562 208.78125 L 210.441406 188.140625 L 245.558594 188.140625 L 217.148438 208.78125 Z M 228 175.382812 "/>
<path style=" stroke:none;fill-rule:nonzero;fill:rgb(100%,100%,100%);fill-opacity:1;" d="M 228 240 L 238.851562 273.398438 L 210.441406 252.757812 L 245.558594 252.757812 L 217.148438 273.398438 Z M 228 240 "/>
<path style=" stroke:none;fill-rule:nonzero;fill:rgb(100%,100%,100%);fill-opacity:1;" d="M 266 13.847656 L 276.851562 47.242188 L 248.441406 26.601562 L 283.558594 26.601562 L 255.148438 47.242188 Z M 266 13.847656 "/>
<path style=" stroke:none;fill-rule:nonzero;fill:rgb(100%,100%,100%);fill-opacity:1;" d="M 266 78.460938 L 276.851562 111.859375 L 248.441406 91.21875 L 283.558594 91.21875 L 255.148438 111.859375 Z M 266 78.460938 "/>
<path style=" stroke:none;fill-rule:nonzero;fill:rgb(100%,100%,100%);fill-opacity:1;" d="M 266 143.078125 L 276.851562 176.472656 L 248.441406 155.832031 L 283.558594 155.832031 L 255.148438 176.472656 Z M 266 143.078125 "/>
<path style=" stroke:none;fill-rule:nonzero;fill:rgb(100%,100%,100%);fill-opacity:1;" d="M 266 207.691406 L 276.851562 241.089844 L 248.441406 220.449219 L 283.558594 220.449219 L 255.148438 241.089844 Z M 266 207.691406 "/>
<path style=" stroke:none;fill-rule:nonzero;fill:rgb(100%,100%,100%);fill-opacity:1;" d="M 266 272.308594 L 276.851562 305.703125 L 248.441406 285.0625 L 283.558594 285.0625 L 255.148438 305.703125 Z M 266 272.308594 "/>
<path style=" stroke:none;fill-rule:nonzero;fill:rgb(100%,100%,100%);fill-opacity:1;" d="M 304 46.152344 L 314.851562 79.550781 L 286.441406 58.910156 L 321.558594 58.910156 L 293.148438 79.550781 Z M 304 46.152344 "/>
<path style=" stroke:none;fill-rule:nonzero;fill:rgb(100%,100%,100%);fill-opacity:1;" d="M 304 110.769531 L 314.851562 144.167969 L 286.441406 123.527344 L 321.558594 123.527344 L 293.148438 144.167969 Z M 304 110.769531 "/>
<path style=" stroke:none;fill-rule:nonzero;fill:rgb(100%,100%,100%);fill-opacity:1;" d="M 304 175.382812 L 314.851562 208.78125 L 286.441406 188.140625 L 321.558594 188.140625 L 293.148438 208.78125 Z M 304 175.382812 "/>
<path style=" stroke:none;fill-rule:nonzero;fill:rgb(100%,100%,100%);fill-opacity:1;" d="M 304 240 L 314.851562 273.398438 L 286.441406 252.757812 L 321.558594 252.757812 L 293.148438 273.398438 Z M 304 240 "/>
<path style=" stroke:none;fill-rule:nonzero;fill:rgb(100%,100%,100%);fill-opacity:1;" d="M 342 13.847656 L 352.851562 47.242188 L 324.441406 26.601562 L 359.558594 26.601562 L 331.148438 47.242188 Z M 342 13.847656 "/>
<path style=" stroke:none;fill-rule:nonzero;fill:rgb(100%,100%,100%);fill-opacity:1;" d="M 342 78.460938 L 352.851562 111.859375 L 324.441406 91.21875 L 359.558594 91.21875 L 331.148438 111.859375 Z M 342 78.460938 "/>
<path style=" stroke:none;fill-rule:nonzero;fill:rgb(100%,100%,100%);fill-opacity:1;" d="M 342 143.078125 L 352.851562 176.472656 L 324.441406 155.832031 L 359.558594 155.832031 L 331.148438 176.472656 Z M 342 143.078125 "/>
<path style=" stroke:none;fill-rule:nonzero;fill:rgb(100%,100%,100%);fill-opacity:1;" d="M 342 207.691406 L 352.851562 241.089844 L 324.441406 220.449219 L 359.558594 220.449219 L 331.148438 241.089844 Z M 342 207.691406 "/>
<path style=" stroke:none;fill-rule:nonzero;fill:rgb(100%,100%,100%);fill-opacity:1;" d="M 342 272.308594 L 352.851562 305.703125 L 324.441406 285.0625 L 359.558594 285.0625 L 331.148438 305.703125 Z M 342 272.308594 "/>
<path style=" stroke:none;fill-rule:nonzero;fill:rgb(100%,100%,100%);fill-opacity:1;" d="M 380 46.152344 L 390.851562 79.550781 L 362.441406 58.910156 L 397.558594 58.910156 L 369.148438 79.550781 Z M 380 46.152344 "/>
<path style=" stroke:none;fill-rule:nonzero;fill:rgb(100%,100%,100%);fill-opacity:1;" d="M 380 110.769531 L 390.851562 144.167969 L 362.441406 123.527344 L 397.558594 123.527344 L 369.148438 144.167969 Z M 380 110.769531 "/>
<path style=" stroke:none;fill-rule:nonzero;fill:rgb(100%,100%,100%);fill-opacity:1;" d="M 380 175.382812 L 390.851562 208.78125 L 362.441406 188.140625 L 397.558594 188.140625 L 369.148438 208.78125 Z M 380 175.382812 "/>
<path style=" stroke:none;fill-rule:nonzero;fill:rgb(100%,100%,100%);fill-opacity:1;" d="M 380 240 L 390.851562 273.398438 L 362.441406 252.757812 L 397.558594 252.757812 L 369.148438 273.398438 Z M 380 240 "/>
<path style=" stroke:none;fill-rule:nonzero;fill:rgb(100%,100%,100%);fill-opacity:1;" d="M 418 13.847656 L 428.851562 47.242188 L 400.441406 26.601562 L 435.558594 26.601562 L 407.148438 47.242188 Z M 418 13.847656 "/>
<path style=" stroke:none;fill-rule:nonzero;fill:rgb(100%,100%,100%);fill-opacity:1;" d="M 418 78.460938 L 428.851562 111.859375 L 400.441406 91.21875 L 435.558594 91.21875 L 407.148438 111.859375 Z M 418 78.460938 "/>
<path style=" stroke:none;fill-rule:nonzero;fill:rgb(100%,100%,100%);fill-opacity:1;" d="M 418 143.078125 L 428.851562 176.472656 L 400.441406 155.832031 L 435.558594 155.832031 L 407.148438 176.472656 Z M 418 143.078125 "/>
<path style=" stroke:none;fill-rule:nonzero;fill:rgb(100%,100%,100%);fill-opacity:1;" d="M 418 207.691406 L 428.851562 241.089844 L 400.441406 220.449219 L 435.558594 220.449219 L 407.148438 241.089844 Z M 418 207.691406 "/>
<path style=" stroke:none;fill-rule:nonzero;fill:rgb(100%,100%,100%);fill-opacity:1;" d="M 418 272.308594 L 428.851562 305.703125 L 400.441406 285.0625 L 435.558594 285.0625 L 407.148438 305.703125 Z M 418 272.308594 "/>
</g>
</svg>
